<svg id="图层_1" data-name="图层 1" xmlns="http://www.w3.org/2000/svg" xmlns:xlink="http://www.w3.org/1999/xlink" viewBox="0 0 409 76.95"><defs><style>.cls-1,.cls-2{fill:#fff;}.cls-2{fill-rule:evenodd;}.cls-3{clip-path:url(#clip-path);}</style><clipPath id="clip-path" transform="translate(0.02 0.04)">
<path fill="#FFFFFF" class="cls-1" d="M306.29,14.37c-13,0-22.46,11.47-22.46,24.08s9.44,24.06,22.46,24.06c8.69,0,15.78-5.11,19.54-12.25q3.92,7.41,8.67,14.71a37.83,37.83,0,0,1-28.21,11.91c-22,0-38.22-16.57-38.22-38.46C268.07,16.84,284.6,0,306.29,0a38.48,38.48,0,0,1,20.56,5.78c11.4,7.14,15.24,16.76,18.75,29.29,1.56,5.58,3,10.88,5.82,15.6a23.42,23.42,0,0,0,8.87,9.12h0a21.11,21.11,0,0,0,10.47,2.75c13,0,22.47-11.47,22.47-24.09s-9.45-24.08-22.47-24.08c-8.69,0-15.78,5.1-19.54,12.24q-3.92-7.39-8.67-14.71A37.8,37.8,0,0,1,370.76,0C392.76,0,409,16.54,409,38.42c0,21.59-16.53,38.46-38.22,38.46A38.38,38.38,0,0,1,350,71c-10.08-6.41-14.36-14.92-17.63-26-2-6.73-3.34-13.13-6.71-18.71a23.33,23.33,0,0,0-8.86-9.12h0a21,21,0,0,0-10.47-2.75"/></clipPath></defs>
<path fill="#FFFFFF" class="cls-2" d="M141.58,15.35V31.07h32.9v14h-32.9v16.7h40.54v14H126.55V1.3h55.57V15.35ZM15,15.35V31.07H48v14H15.08v16.7H55.62v14H0V1.3H55.55V15.35ZM80.82,61.81H119v14H65.79V1.3h15ZM243.52,47H221.33V34H258.8V75.88H246V66.39c-5.11,7.23-13,9.88-22,10.4a36,36,0,0,1-25.57-9.13c-8-7.15-12-17.15-12-27.85,0-22.18,14.55-39.53,37.29-39.53A36.91,36.91,0,0,1,248.1,9a33.28,33.28,0,0,1,7.43,8.81l.31.6-12.76,8.15-.37-.75c-6.18-12.48-23.67-15-33.47-5.3a25.76,25.76,0,0,0-7.34,17.39,29.77,29.77,0,0,0,4.43,15.52c4,6.24,10.13,9.1,17.5,9.1,10.15,0,17-6.26,19.69-15.51Z" transform="translate(0.02 0.04)"/>
<path fill="#FFFFFF" class="cls-1" d="M306.29,14.37c-13,0-22.46,11.47-22.46,24.08s9.44,24.06,22.46,24.06c8.69,0,15.78-5.11,19.54-12.25q3.92,7.41,8.67,14.71a37.83,37.83,0,0,1-28.21,11.91c-22,0-38.22-16.57-38.22-38.46C268.07,16.84,284.6,0,306.29,0a38.48,38.48,0,0,1,20.56,5.78c11.4,7.14,15.24,16.76,18.75,29.29,1.56,5.58,3,10.88,5.82,15.6a23.42,23.42,0,0,0,8.87,9.12h0a21.11,21.11,0,0,0,10.47,2.75c13,0,22.47-11.47,22.47-24.09s-9.45-24.08-22.47-24.08c-8.69,0-15.78,5.1-19.54,12.24q-3.92-7.39-8.67-14.71A37.8,37.8,0,0,1,370.76,0C392.76,0,409,16.54,409,38.42c0,21.59-16.53,38.46-38.22,38.46A38.38,38.38,0,0,1,350,71c-10.08-6.41-14.36-14.92-17.63-26-2-6.73-3.34-13.13-6.71-18.71a23.33,23.33,0,0,0-8.86-9.12h0a21,21,0,0,0-10.47-2.75" transform="translate(0.02 0.04)"/>
<g fill="#FFFFFF" class="cls-3"><rect class="cls-1" x="268.09" y="0.04" width="140.91" height="76.91"/></g>
<path fill="#FFFFFF" d="M0.074,9.396c0-5.301,3.799-8.363,8.109-8.363c1.956,0,3.458,0.765,4.621,1.758l-1.985,2.693
		c-0.793-0.68-1.531-1.049-2.438-1.049c-2.411,0-4.054,1.956-4.054,4.96c0,2.979,1.644,4.906,3.94,4.906
		c1.134,0,2.212-0.539,3.09-1.276l1.645,2.751c-1.503,1.333-3.431,1.928-5.188,1.928C3.42,17.704,0.074,14.643,0.074,9.396z"/>
	<path fill="#FFFFFF" d="M15.837,11.353V1.43h4.168v9.384c0,2.468,0.68,3.318,2.211,3.318c1.304,0,2.155-0.567,3.232-1.984V1.43
		h4.167v15.877h-3.402l-0.313-2.269h-0.113c-1.361,1.616-2.892,2.666-5.076,2.666C17.312,17.704,15.837,15.322,15.837,11.353z"/>
	<path fill="#FFFFFF" d="M34.067,1.43h3.402l0.283,2.807h0.115c1.163-2.069,2.864-3.204,4.508-3.204
		c0.877,0,1.389,0.142,1.871,0.339L43.51,4.973c-0.541-0.169-0.996-0.255-1.646-0.255c-1.247,0-2.75,0.823-3.657,3.12v9.469h-4.139
		V1.43z"/>
	<path fill="#FFFFFF" d="M44.756,12.997c0-3.401,2.752-5.188,9.131-5.869c-0.057-1.56-0.74-2.75-2.697-2.75
		c-1.471,0-2.891,0.652-4.363,1.503L45.322,3.13c1.871-1.163,4.139-2.098,6.635-2.098c4.025,0,6.096,2.41,6.096,7.003v9.271h-3.4
		l-0.314-1.701h-0.086c-1.389,1.191-2.975,2.099-4.791,2.099C46.627,17.704,44.756,15.691,44.756,12.997z M53.887,12.884V9.681
		c-3.857,0.51-5.162,1.56-5.162,2.977c0,1.247,0.881,1.785,2.098,1.785C52.014,14.442,52.893,13.875,53.887,12.884z"/>
</svg>