<svg id="图层_1" data-name="图层 1" xmlns="http://www.w3.org/2000/svg" xmlns:xlink="http://www.w3.org/1999/xlink" viewBox="0 0 408.98 76.91"><defs><style>.cls-1{fill:none;clip-rule:evenodd;}.cls-2{fill:#052c79;fill-rule:evenodd;}.cls-3{clip-path:url(#clip-path);}.cls-4{fill:url(#linear-gradient);}</style><clipPath id="clip-path" transform="translate(-196.02 -205.49)"><path class="cls-1" d="M502.31,219.86c-13,0-22.46,11.47-22.46,24.08S489.29,268,502.31,268c8.69,0,15.78-5.11,19.54-12.25q3.92,7.41,8.67,14.71a37.82,37.82,0,0,1-28.21,11.91c-22,0-38.22-16.57-38.22-38.46,0-21.58,16.53-38.45,38.22-38.45a38.51,38.51,0,0,1,20.56,5.78c11.4,7.14,15.24,16.76,18.75,29.29,1.56,5.58,3,10.88,5.82,15.6a23.36,23.36,0,0,0,8.87,9.12h0A21.08,21.08,0,0,0,566.78,268c13,0,22.47-11.47,22.47-24.09s-9.45-24.08-22.47-24.08c-8.69,0-15.78,5.1-19.54,12.24q-3.91-7.4-8.67-14.71a37.82,37.82,0,0,1,28.21-11.9c22,0,38.22,16.57,38.22,38.45,0,21.59-16.53,38.46-38.22,38.46A38.45,38.45,0,0,1,546,276.46c-10.08-6.41-14.36-14.92-17.63-26-2-6.73-3.34-13.13-6.71-18.71a23.27,23.27,0,0,0-8.86-9.12h0a21,21,0,0,0-10.47-2.75"/></clipPath><linearGradient id="linear-gradient" x1="181.79" y1="-0.38" x2="429.13" y2="60.9" gradientUnits="userSpaceOnUse"><stop offset="0" stop-color="#f404da"/><stop offset="0.49" stop-color="#4876ff"/><stop offset="1" stop-color="#08fbff"/></linearGradient></defs><path class="cls-2" d="M337.6,220.84v15.72h32.9v14H337.6v16.7h40.54v14.05H322.57V206.79h55.57v14.05Zm-126.55,0v15.72H244v14h-32.9v16.7h40.54v14.05H196V206.79h55.57v14.05Zm65.79,46.46H315v14.05H261.81V206.79h15Zm162.7-14.85H417.35v-13h37.47v41.92H442v-9.49c-5.11,7.23-13,9.88-22,10.4a36,36,0,0,1-25.57-9.13C386.43,266,382.4,256,382.4,245.3c0-22.18,14.55-39.53,37.29-39.53a36.92,36.92,0,0,1,24.43,8.67,33.33,33.33,0,0,1,7.43,8.81l.31.6L439.1,232l-.37-.75c-6.18-12.48-23.67-15-33.47-5.3a25.76,25.76,0,0,0-7.34,17.39,29.78,29.78,0,0,0,4.43,15.52c4,6.24,10.13,9.1,17.5,9.1C430,268,436.85,261.7,439.54,252.45Z" transform="translate(-196.02 -205.49)"/><g class="cls-3"><rect class="cls-4" x="268.07" width="140.91" height="76.91"/></g></svg>