<svg id="图层_1" data-name="图层 1" xmlns="http://www.w3.org/2000/svg" viewBox="0 0 619.52 76.92"><defs><style>.cls-1,.cls-2{fill:#fff;}.cls-1{fill-rule:evenodd;}</style></defs>
<path fill="#FFFFFF" class="cls-1" d="M141.58,22.37V38.09h32.9v14h-32.9v16.7h40.54v14H126.55V8.32h55.57V22.37ZM15,22.37V38.09H48v14H15.08v16.7H55.62v14H0V8.32H55.55V22.37ZM80.82,68.83H119v14H65.79V8.32h15ZM243.52,54H221.33V41H258.8V82.9H246V73.41c-5.11,7.23-13,9.88-22,10.4a36,36,0,0,1-25.57-9.13c-8-7.15-12-17.15-12-27.85,0-22.18,14.55-39.53,37.29-39.53A36.91,36.91,0,0,1,248.1,16a33.28,33.28,0,0,1,7.43,8.81l.31.6-12.76,8.15-.37-.75c-6.18-12.48-23.67-15-33.47-5.3a25.76,25.76,0,0,0-7.34,17.39,29.77,29.77,0,0,0,4.43,15.52c4,6.24,10.13,9.1,17.5,9.1,10.15,0,17-6.26,19.69-15.51Z" transform="translate(0.02 -6.98)"/>
<path fill="#FFFFFF" class="cls-2" d="M306.29,21.39c-13,0-22.46,11.47-22.46,24.08s9.44,24.06,22.46,24.06c8.69,0,15.78-5.11,19.54-12.25q3.92,7.41,8.67,14.71A37.83,37.83,0,0,1,306.29,83.9c-22,0-38.22-16.57-38.22-38.46C268.07,23.86,284.6,7,306.29,7a38.48,38.48,0,0,1,20.56,5.78c11.4,7.14,15.24,16.76,18.75,29.29,1.56,5.58,3,10.88,5.82,15.6a23.42,23.42,0,0,0,8.87,9.12h0a21.11,21.11,0,0,0,10.47,2.75c13,0,22.47-11.47,22.47-24.09s-9.45-24.08-22.47-24.08c-8.69,0-15.78,5.1-19.54,12.24q-3.92-7.39-8.67-14.71A37.8,37.8,0,0,1,370.76,7C392.76,7,409,23.56,409,45.44,409,67,392.45,83.9,370.76,83.9A38.38,38.38,0,0,1,350,78c-10.08-6.41-14.36-14.92-17.63-26-2-6.73-3.34-13.13-6.71-18.71a23.33,23.33,0,0,0-8.86-9.12h0a21,21,0,0,0-10.47-2.75" transform="translate(0.02 -6.98)"/>
<path fill="#FFFFFF" class="cls-2" d="M429.87,45.71c0-21.49,13.83-34.09,30.3-34.09A26.58,26.58,0,0,1,479.28,20l-6.87,8.28c-3.26-3.17-7-5.46-12-5.46-9.86,0-17.26,8.45-17.26,22.46,0,14.18,6.69,22.72,17,22.72,5.55,0,9.95-2.64,13.48-6.43l6.87,8.11a26.4,26.4,0,0,1-20.79,9.6C443.26,79.27,429.87,67.46,429.87,45.71Z" transform="translate(0.02 -6.98)"/>
<path fill="#FFFFFF" class="cls-2" d="M488.35,59.54V28.71H501.3V57.86c0,7.67,2.11,10.31,6.87,10.31,4.05,0,6.69-1.76,10-6.17V28.71h12.95V78H520.59l-1-7h-.35c-4.23,5-9,8.28-15.77,8.28C492.93,79.27,488.35,71.87,488.35,59.54Z" transform="translate(0.02 -6.98)"/>
<path fill="#FFFFFF" class="cls-2" d="M545,28.71h10.57l.88,8.72h.35c3.62-6.43,8.9-9.95,14-9.95a14,14,0,0,1,5.81,1.05l-2.29,11.19a15.48,15.48,0,0,0-5.11-.79c-3.87,0-8.54,2.55-11.36,9.69V78H545Z" transform="translate(0.02 -6.98)"/>
<path fill="#FFFFFF" class="cls-2" d="M578.19,64.65c0-10.57,8.54-16.12,28.36-18.24-.18-4.84-2.29-8.54-8.37-8.54-4.58,0-9,2-13.56,4.67L580,34c5.81-3.61,12.86-6.51,20.61-6.51,12.5,0,18.94,7.48,18.94,21.75V78H608.93l-1-5.28h-.27c-4.31,3.7-9.25,6.52-14.88,6.52C584,79.27,578.19,73,578.19,64.65Zm28.36-.36v-10c-12,1.59-16,4.85-16,9.25,0,3.87,2.73,5.55,6.52,5.55S603.46,67.38,606.55,64.29Z" transform="translate(0.02 -6.98)"/></svg>